<mxfile host="app.diagrams.net" agent="Mozilla/5.0 (Windows NT 10.0; Win64; x64) AppleWebKit/537.36 (KHTML, like Gecko) Chrome/134.0.0.0 Safari/537.36" version="26.1.3">
  <diagram name="Page-1" id="74e2e168-ea6b-b213-b513-2b3c1d86103e">
    <mxGraphModel dx="913" dy="484" grid="1" gridSize="10" guides="1" tooltips="1" connect="1" arrows="1" fold="1" page="1" pageScale="1" pageWidth="1100" pageHeight="850" background="none" math="0" shadow="0">
      <root>
        <mxCell id="0" />
        <mxCell id="1" parent="0" />
        <mxCell id="77e6c97f196da883-1" value="&lt;font style=&quot;font-size: 18px;&quot;&gt;巡检计划修改&lt;/font&gt;" style="swimlane;html=1;childLayout=stackLayout;startSize=20;rounded=0;shadow=0;labelBackgroundColor=none;strokeWidth=1;fontFamily=Verdana;fontSize=8;align=center;" parent="1" vertex="1">
          <mxGeometry x="70" y="20" width="960" height="1110" as="geometry" />
        </mxCell>
        <mxCell id="77e6c97f196da883-2" value="接收请求" style="swimlane;html=1;startSize=20;" parent="77e6c97f196da883-1" vertex="1">
          <mxGeometry y="20" width="160" height="1090" as="geometry">
            <mxRectangle y="20" width="40" height="730" as="alternateBounds" />
          </mxGeometry>
        </mxCell>
        <mxCell id="OuAqoAczvBelTa_8rbJ0-2" style="edgeStyle=orthogonalEdgeStyle;rounded=0;orthogonalLoop=1;jettySize=auto;html=1;exitX=0.5;exitY=1;exitDx=0;exitDy=0;entryX=0.5;entryY=0;entryDx=0;entryDy=0;" edge="1" parent="77e6c97f196da883-2" source="77e6c97f196da883-8" target="cfTg0l-f0pAShHveTOmt-1">
          <mxGeometry relative="1" as="geometry" />
        </mxCell>
        <mxCell id="77e6c97f196da883-8" value="&lt;font style=&quot;font-size: 12px;&quot;&gt;开始&lt;/font&gt;" style="rounded=1;whiteSpace=wrap;html=1;shadow=0;labelBackgroundColor=none;strokeWidth=1;fontFamily=Verdana;fontSize=8;align=center;" parent="77e6c97f196da883-2" vertex="1">
          <mxGeometry x="20" y="60" width="100" height="60" as="geometry" />
        </mxCell>
        <mxCell id="cfTg0l-f0pAShHveTOmt-1" value="&lt;font style=&quot;font-size: 12px;&quot;&gt;巡检计划查询&lt;/font&gt;" style="rhombus;whiteSpace=wrap;html=1;rounded=0;shadow=0;labelBackgroundColor=none;strokeWidth=1;fontFamily=Verdana;fontSize=8;align=center;" parent="77e6c97f196da883-2" vertex="1">
          <mxGeometry x="20" y="160" width="100" height="75" as="geometry" />
        </mxCell>
        <mxCell id="cfTg0l-f0pAShHveTOmt-4" style="edgeStyle=orthogonalEdgeStyle;rounded=0;orthogonalLoop=1;jettySize=auto;html=1;exitX=0.5;exitY=1;exitDx=0;exitDy=0;entryX=0.5;entryY=0;entryDx=0;entryDy=0;" parent="77e6c97f196da883-2" source="cfTg0l-f0pAShHveTOmt-1" edge="1">
          <mxGeometry relative="1" as="geometry">
            <mxPoint x="70" y="980" as="targetPoint" />
          </mxGeometry>
        </mxCell>
        <mxCell id="cfTg0l-f0pAShHveTOmt-24" value="未查询到" style="edgeLabel;html=1;align=center;verticalAlign=middle;resizable=0;points=[];" parent="cfTg0l-f0pAShHveTOmt-4" vertex="1" connectable="0">
          <mxGeometry x="-0.24" y="-1" relative="1" as="geometry">
            <mxPoint as="offset" />
          </mxGeometry>
        </mxCell>
        <mxCell id="zkKsR5GlTw2Tc259dVME-4" value="&lt;span style=&quot;font-size: 12px;&quot;&gt;失败返回&lt;/span&gt;" style="whiteSpace=wrap;html=1;fontSize=8;fontFamily=Verdana;rounded=0;shadow=0;labelBackgroundColor=none;strokeWidth=1;" parent="77e6c97f196da883-2" vertex="1">
          <mxGeometry x="20" y="980" width="100" height="60" as="geometry" />
        </mxCell>
        <mxCell id="77e6c97f196da883-3" value="班组人员查询" style="swimlane;html=1;startSize=20;" parent="77e6c97f196da883-1" vertex="1">
          <mxGeometry x="160" y="20" width="160" height="1090" as="geometry" />
        </mxCell>
        <mxCell id="cfTg0l-f0pAShHveTOmt-27" value="&lt;span style=&quot;font-size: 12px;&quot;&gt;查询班组人员&lt;/span&gt;" style="rhombus;whiteSpace=wrap;html=1;rounded=0;shadow=0;labelBackgroundColor=none;strokeWidth=1;fontFamily=Verdana;fontSize=8;align=center;" parent="77e6c97f196da883-3" vertex="1">
          <mxGeometry x="30" y="160" width="100" height="75" as="geometry" />
        </mxCell>
        <mxCell id="cfTg0l-f0pAShHveTOmt-30" value="" style="edgeStyle=orthogonalEdgeStyle;rounded=0;orthogonalLoop=1;jettySize=auto;html=1;" parent="77e6c97f196da883-3" source="cfTg0l-f0pAShHveTOmt-27" edge="1">
          <mxGeometry relative="1" as="geometry">
            <mxPoint x="-90" y="300" as="targetPoint" />
            <Array as="points">
              <mxPoint x="80" y="300" />
              <mxPoint x="-90" y="300" />
            </Array>
          </mxGeometry>
        </mxCell>
        <mxCell id="cfTg0l-f0pAShHveTOmt-47" value="未查询到" style="edgeLabel;html=1;align=center;verticalAlign=middle;resizable=0;points=[];" parent="cfTg0l-f0pAShHveTOmt-30" vertex="1" connectable="0">
          <mxGeometry x="-0.8288" y="-1" relative="1" as="geometry">
            <mxPoint as="offset" />
          </mxGeometry>
        </mxCell>
        <mxCell id="77e6c97f196da883-5" value="检修时间修改" style="swimlane;html=1;startSize=20;" parent="77e6c97f196da883-1" vertex="1">
          <mxGeometry x="320" y="20" width="160" height="1090" as="geometry" />
        </mxCell>
        <mxCell id="OuAqoAczvBelTa_8rbJ0-12" style="edgeStyle=orthogonalEdgeStyle;rounded=0;orthogonalLoop=1;jettySize=auto;html=1;exitX=0.5;exitY=1;exitDx=0;exitDy=0;entryX=0.5;entryY=0;entryDx=0;entryDy=0;" edge="1" parent="77e6c97f196da883-5" source="cfTg0l-f0pAShHveTOmt-33" target="OuAqoAczvBelTa_8rbJ0-11">
          <mxGeometry relative="1" as="geometry" />
        </mxCell>
        <mxCell id="OuAqoAczvBelTa_8rbJ0-13" value="是" style="edgeLabel;html=1;align=center;verticalAlign=middle;resizable=0;points=[];" vertex="1" connectable="0" parent="OuAqoAczvBelTa_8rbJ0-12">
          <mxGeometry x="-0.1597" relative="1" as="geometry">
            <mxPoint y="1" as="offset" />
          </mxGeometry>
        </mxCell>
        <mxCell id="cfTg0l-f0pAShHveTOmt-33" value="&lt;div&gt;&lt;span style=&quot;font-size: 12px;&quot;&gt;是否修改&lt;/span&gt;&lt;span style=&quot;font-size: 12px;&quot;&gt;&lt;/span&gt;&lt;/div&gt;&lt;span style=&quot;font-size: 12px;&quot;&gt;检修时间&lt;/span&gt;&lt;div&gt;&lt;br&gt;&lt;/div&gt;" style="rhombus;whiteSpace=wrap;html=1;rounded=0;shadow=0;labelBackgroundColor=none;strokeWidth=1;fontFamily=Verdana;fontSize=8;align=center;" parent="77e6c97f196da883-5" vertex="1">
          <mxGeometry x="30" y="160" width="100" height="75" as="geometry" />
        </mxCell>
        <mxCell id="OuAqoAczvBelTa_8rbJ0-15" style="edgeStyle=orthogonalEdgeStyle;rounded=0;orthogonalLoop=1;jettySize=auto;html=1;exitX=0.5;exitY=1;exitDx=0;exitDy=0;entryX=0.5;entryY=0;entryDx=0;entryDy=0;" edge="1" parent="77e6c97f196da883-5" source="OuAqoAczvBelTa_8rbJ0-11" target="OuAqoAczvBelTa_8rbJ0-14">
          <mxGeometry relative="1" as="geometry" />
        </mxCell>
        <mxCell id="OuAqoAczvBelTa_8rbJ0-11" value="&lt;span style=&quot;font-size: 12px;&quot;&gt;重新生成检修计划&lt;/span&gt;&lt;div&gt;&lt;span style=&quot;font-size: 12px;&quot;&gt;工作开始结束时间&lt;/span&gt;&lt;/div&gt;&lt;div&gt;&lt;span style=&quot;font-size: 12px;&quot;&gt;停电开始结束时间&lt;/span&gt;&lt;/div&gt;" style="whiteSpace=wrap;html=1;fontSize=8;fontFamily=Verdana;rounded=0;shadow=0;labelBackgroundColor=none;strokeWidth=1;" vertex="1" parent="77e6c97f196da883-5">
          <mxGeometry x="30" y="270" width="100" height="60" as="geometry" />
        </mxCell>
        <mxCell id="OuAqoAczvBelTa_8rbJ0-24" style="edgeStyle=orthogonalEdgeStyle;rounded=0;orthogonalLoop=1;jettySize=auto;html=1;exitX=0.5;exitY=1;exitDx=0;exitDy=0;" edge="1" parent="77e6c97f196da883-5" source="OuAqoAczvBelTa_8rbJ0-14">
          <mxGeometry relative="1" as="geometry">
            <mxPoint x="150" y="200" as="targetPoint" />
          </mxGeometry>
        </mxCell>
        <mxCell id="OuAqoAczvBelTa_8rbJ0-14" value="&lt;span style=&quot;font-size: 12px;&quot;&gt;检修计划工作&lt;/span&gt;&lt;div&gt;&lt;span style=&quot;font-size: 12px;&quot;&gt;更新&lt;/span&gt;&lt;span style=&quot;font-size: 12px; background-color: transparent; color: light-dark(rgb(0, 0, 0), rgb(255, 255, 255));&quot;&gt;计划工作开始结束时间&lt;/span&gt;&lt;/div&gt;" style="whiteSpace=wrap;html=1;fontSize=8;fontFamily=Verdana;rounded=0;shadow=0;labelBackgroundColor=none;strokeWidth=1;" vertex="1" parent="77e6c97f196da883-5">
          <mxGeometry x="30" y="360" width="100" height="60" as="geometry" />
        </mxCell>
        <mxCell id="77e6c97f196da883-6" value="删除检修工作" style="swimlane;html=1;startSize=20;" parent="77e6c97f196da883-1" vertex="1">
          <mxGeometry x="480" y="20" width="160" height="1090" as="geometry" />
        </mxCell>
        <mxCell id="OuAqoAczvBelTa_8rbJ0-18" style="edgeStyle=orthogonalEdgeStyle;rounded=0;orthogonalLoop=1;jettySize=auto;html=1;exitX=0.5;exitY=1;exitDx=0;exitDy=0;entryX=0.5;entryY=0;entryDx=0;entryDy=0;" edge="1" parent="77e6c97f196da883-6" source="OuAqoAczvBelTa_8rbJ0-16" target="OuAqoAczvBelTa_8rbJ0-17">
          <mxGeometry relative="1" as="geometry" />
        </mxCell>
        <mxCell id="OuAqoAczvBelTa_8rbJ0-19" value="是" style="edgeLabel;html=1;align=center;verticalAlign=middle;resizable=0;points=[];" vertex="1" connectable="0" parent="OuAqoAczvBelTa_8rbJ0-18">
          <mxGeometry x="-0.0924" relative="1" as="geometry">
            <mxPoint y="-1" as="offset" />
          </mxGeometry>
        </mxCell>
        <mxCell id="OuAqoAczvBelTa_8rbJ0-32" style="edgeStyle=orthogonalEdgeStyle;rounded=0;orthogonalLoop=1;jettySize=auto;html=1;exitX=1;exitY=0.5;exitDx=0;exitDy=0;" edge="1" parent="77e6c97f196da883-6" source="OuAqoAczvBelTa_8rbJ0-16">
          <mxGeometry relative="1" as="geometry">
            <mxPoint x="150" y="197.73913043478262" as="targetPoint" />
          </mxGeometry>
        </mxCell>
        <mxCell id="OuAqoAczvBelTa_8rbJ0-33" value="否" style="edgeLabel;html=1;align=center;verticalAlign=middle;resizable=0;points=[];" vertex="1" connectable="0" parent="OuAqoAczvBelTa_8rbJ0-32">
          <mxGeometry x="-0.1736" relative="1" as="geometry">
            <mxPoint as="offset" />
          </mxGeometry>
        </mxCell>
        <mxCell id="OuAqoAczvBelTa_8rbJ0-16" value="&lt;span style=&quot;font-size: 12px;&quot;&gt;是否存在&lt;br&gt;要删除的&lt;/span&gt;&lt;div&gt;&lt;span style=&quot;font-size: 12px;&quot;&gt;检修工作&lt;/span&gt;&lt;/div&gt;" style="rhombus;whiteSpace=wrap;html=1;rounded=0;shadow=0;labelBackgroundColor=none;strokeWidth=1;fontFamily=Verdana;fontSize=8;align=center;" vertex="1" parent="77e6c97f196da883-6">
          <mxGeometry x="30" y="160" width="100" height="75" as="geometry" />
        </mxCell>
        <mxCell id="OuAqoAczvBelTa_8rbJ0-21" style="edgeStyle=orthogonalEdgeStyle;rounded=0;orthogonalLoop=1;jettySize=auto;html=1;exitX=0.5;exitY=1;exitDx=0;exitDy=0;" edge="1" parent="77e6c97f196da883-6" source="OuAqoAczvBelTa_8rbJ0-17" target="OuAqoAczvBelTa_8rbJ0-20">
          <mxGeometry relative="1" as="geometry" />
        </mxCell>
        <mxCell id="OuAqoAczvBelTa_8rbJ0-17" value="&lt;span style=&quot;font-size: 12px;&quot;&gt;现场勘察任务&lt;/span&gt;&lt;div&gt;&lt;span style=&quot;font-size: 12px;&quot;&gt;状态更新&lt;/span&gt;&lt;/div&gt;" style="whiteSpace=wrap;html=1;fontSize=8;fontFamily=Verdana;rounded=0;shadow=0;labelBackgroundColor=none;strokeWidth=1;" vertex="1" parent="77e6c97f196da883-6">
          <mxGeometry x="30" y="270" width="100" height="60" as="geometry" />
        </mxCell>
        <mxCell id="OuAqoAczvBelTa_8rbJ0-23" style="edgeStyle=orthogonalEdgeStyle;rounded=0;orthogonalLoop=1;jettySize=auto;html=1;exitX=0.5;exitY=1;exitDx=0;exitDy=0;entryX=0.5;entryY=0;entryDx=0;entryDy=0;" edge="1" parent="77e6c97f196da883-6" source="OuAqoAczvBelTa_8rbJ0-20" target="OuAqoAczvBelTa_8rbJ0-22">
          <mxGeometry relative="1" as="geometry" />
        </mxCell>
        <mxCell id="OuAqoAczvBelTa_8rbJ0-20" value="&lt;span style=&quot;font-size: 12px;&quot;&gt;删除对应的&lt;/span&gt;&lt;div&gt;&lt;span style=&quot;font-size: 12px;&quot;&gt;检修计划于工作任务关联表数据&lt;/span&gt;&lt;/div&gt;" style="whiteSpace=wrap;html=1;fontSize=8;fontFamily=Verdana;rounded=0;shadow=0;labelBackgroundColor=none;strokeWidth=1;" vertex="1" parent="77e6c97f196da883-6">
          <mxGeometry x="30" y="360" width="100" height="60" as="geometry" />
        </mxCell>
        <mxCell id="OuAqoAczvBelTa_8rbJ0-26" style="edgeStyle=orthogonalEdgeStyle;rounded=0;orthogonalLoop=1;jettySize=auto;html=1;exitX=0.5;exitY=1;exitDx=0;exitDy=0;entryX=0.5;entryY=0;entryDx=0;entryDy=0;" edge="1" parent="77e6c97f196da883-6" source="OuAqoAczvBelTa_8rbJ0-22" target="OuAqoAczvBelTa_8rbJ0-25">
          <mxGeometry relative="1" as="geometry" />
        </mxCell>
        <mxCell id="OuAqoAczvBelTa_8rbJ0-22" value="&lt;span style=&quot;font-size: 12px;&quot;&gt;更新对应的&lt;/span&gt;&lt;div&gt;&lt;span style=&quot;font-size: 12px;&quot;&gt;检修工作任务表数据的状态&lt;/span&gt;&lt;/div&gt;" style="whiteSpace=wrap;html=1;fontSize=8;fontFamily=Verdana;rounded=0;shadow=0;labelBackgroundColor=none;strokeWidth=1;" vertex="1" parent="77e6c97f196da883-6">
          <mxGeometry x="30" y="450" width="100" height="60" as="geometry" />
        </mxCell>
        <mxCell id="OuAqoAczvBelTa_8rbJ0-25" value="&lt;span style=&quot;font-size: 12px;&quot;&gt;重新设置&lt;/span&gt;&lt;div&gt;&lt;span style=&quot;font-size: 12px;&quot;&gt;检修计划的工作内容字段&lt;/span&gt;&lt;/div&gt;" style="whiteSpace=wrap;html=1;fontSize=8;fontFamily=Verdana;rounded=0;shadow=0;labelBackgroundColor=none;strokeWidth=1;" vertex="1" parent="77e6c97f196da883-6">
          <mxGeometry x="30" y="540" width="100" height="60" as="geometry" />
        </mxCell>
        <mxCell id="77e6c97f196da883-7" value="新增检修工作" style="swimlane;html=1;startSize=20;" parent="77e6c97f196da883-1" vertex="1">
          <mxGeometry x="640" y="20" width="160" height="1090" as="geometry" />
        </mxCell>
        <mxCell id="cfTg0l-f0pAShHveTOmt-70" style="edgeStyle=orthogonalEdgeStyle;rounded=0;orthogonalLoop=1;jettySize=auto;html=1;exitX=0.5;exitY=1;exitDx=0;exitDy=0;entryX=0.5;entryY=0;entryDx=0;entryDy=0;" parent="77e6c97f196da883-7" source="cfTg0l-f0pAShHveTOmt-64" target="cfTg0l-f0pAShHveTOmt-63" edge="1">
          <mxGeometry relative="1" as="geometry" />
        </mxCell>
        <mxCell id="cfTg0l-f0pAShHveTOmt-71" value="是" style="edgeLabel;html=1;align=center;verticalAlign=middle;resizable=0;points=[];" parent="cfTg0l-f0pAShHveTOmt-70" vertex="1" connectable="0">
          <mxGeometry x="-0.168" y="-1" relative="1" as="geometry">
            <mxPoint as="offset" />
          </mxGeometry>
        </mxCell>
        <mxCell id="OuAqoAczvBelTa_8rbJ0-28" style="edgeStyle=orthogonalEdgeStyle;rounded=0;orthogonalLoop=1;jettySize=auto;html=1;exitX=1;exitY=0.5;exitDx=0;exitDy=0;entryX=0.5;entryY=0;entryDx=0;entryDy=0;" edge="1" parent="77e6c97f196da883-7" source="cfTg0l-f0pAShHveTOmt-64" target="OuAqoAczvBelTa_8rbJ0-27">
          <mxGeometry relative="1" as="geometry">
            <Array as="points">
              <mxPoint x="140" y="198" />
              <mxPoint x="140" y="340" />
              <mxPoint x="80" y="340" />
            </Array>
          </mxGeometry>
        </mxCell>
        <mxCell id="OuAqoAczvBelTa_8rbJ0-29" value="否" style="edgeLabel;html=1;align=center;verticalAlign=middle;resizable=0;points=[];" vertex="1" connectable="0" parent="OuAqoAczvBelTa_8rbJ0-28">
          <mxGeometry x="-0.5163" y="-1" relative="1" as="geometry">
            <mxPoint as="offset" />
          </mxGeometry>
        </mxCell>
        <mxCell id="cfTg0l-f0pAShHveTOmt-64" value="&lt;span style=&quot;font-size: 12px;&quot;&gt;是否存在&lt;/span&gt;&lt;div&gt;&lt;span style=&quot;font-size: 12px;&quot;&gt;新增来字隐患排查&lt;/span&gt;&lt;/div&gt;&lt;div&gt;&lt;span style=&quot;font-size: 12px;&quot;&gt;的检修任务&lt;/span&gt;&lt;/div&gt;" style="rhombus;whiteSpace=wrap;html=1;rounded=0;shadow=0;labelBackgroundColor=none;strokeWidth=1;fontFamily=Verdana;fontSize=8;align=center;" parent="77e6c97f196da883-7" vertex="1">
          <mxGeometry x="30" y="160" width="100" height="75" as="geometry" />
        </mxCell>
        <mxCell id="cfTg0l-f0pAShHveTOmt-74" style="edgeStyle=orthogonalEdgeStyle;rounded=0;orthogonalLoop=1;jettySize=auto;html=1;exitX=0.5;exitY=1;exitDx=0;exitDy=0;entryX=0.5;entryY=0;entryDx=0;entryDy=0;" parent="77e6c97f196da883-7" source="cfTg0l-f0pAShHveTOmt-63" target="OuAqoAczvBelTa_8rbJ0-27" edge="1">
          <mxGeometry relative="1" as="geometry">
            <mxPoint x="80" y="360" as="targetPoint" />
          </mxGeometry>
        </mxCell>
        <mxCell id="cfTg0l-f0pAShHveTOmt-63" value="&lt;div&gt;&lt;span style=&quot;font-size: 12px;&quot;&gt;新增检修计划于工作任务关联&lt;/span&gt;&lt;/div&gt;" style="whiteSpace=wrap;html=1;fontSize=8;fontFamily=Verdana;rounded=0;shadow=0;labelBackgroundColor=none;strokeWidth=1;" parent="77e6c97f196da883-7" vertex="1">
          <mxGeometry x="30" y="270" width="100" height="60" as="geometry" />
        </mxCell>
        <mxCell id="cfTg0l-f0pAShHveTOmt-77" style="edgeStyle=orthogonalEdgeStyle;rounded=0;orthogonalLoop=1;jettySize=auto;html=1;exitX=0.5;exitY=1;exitDx=0;exitDy=0;entryX=0.5;entryY=0;entryDx=0;entryDy=0;" parent="77e6c97f196da883-7" source="cfTg0l-f0pAShHveTOmt-73" target="cfTg0l-f0pAShHveTOmt-76" edge="1">
          <mxGeometry relative="1" as="geometry" />
        </mxCell>
        <mxCell id="cfTg0l-f0pAShHveTOmt-73" value="&lt;div&gt;&lt;span style=&quot;font-size: 12px;&quot;&gt;检修计划停电范围&lt;/span&gt;&lt;/div&gt;&lt;div&gt;&lt;span style=&quot;font-size: 12px;&quot;&gt;数据对象组装&lt;/span&gt;&lt;/div&gt;" style="whiteSpace=wrap;html=1;fontSize=8;fontFamily=Verdana;rounded=0;shadow=0;labelBackgroundColor=none;strokeWidth=1;" parent="77e6c97f196da883-7" vertex="1">
          <mxGeometry x="30" y="460" width="100" height="60" as="geometry" />
        </mxCell>
        <mxCell id="cfTg0l-f0pAShHveTOmt-79" style="edgeStyle=orthogonalEdgeStyle;rounded=0;orthogonalLoop=1;jettySize=auto;html=1;exitX=0.5;exitY=1;exitDx=0;exitDy=0;entryX=0.5;entryY=0;entryDx=0;entryDy=0;" parent="77e6c97f196da883-7" source="cfTg0l-f0pAShHveTOmt-76" target="cfTg0l-f0pAShHveTOmt-78" edge="1">
          <mxGeometry relative="1" as="geometry" />
        </mxCell>
        <mxCell id="cfTg0l-f0pAShHveTOmt-76" value="&lt;span style=&quot;font-size: 12px;&quot;&gt;设置&lt;/span&gt;&lt;div&gt;&lt;span style=&quot;font-size: 12px;&quot;&gt;检修计划停电范围&lt;/span&gt;&lt;/div&gt;&lt;div&gt;&lt;span style=&quot;font-size: 12px;&quot;&gt;的调度接收单位&lt;/span&gt;&lt;/div&gt;" style="whiteSpace=wrap;html=1;fontSize=8;fontFamily=Verdana;rounded=0;shadow=0;labelBackgroundColor=none;strokeWidth=1;" parent="77e6c97f196da883-7" vertex="1">
          <mxGeometry x="30" y="620" width="100" height="60" as="geometry" />
        </mxCell>
        <mxCell id="cfTg0l-f0pAShHveTOmt-78" value="&lt;div&gt;&lt;span style=&quot;font-size: 12px;&quot;&gt;停电边界设备&lt;/span&gt;&lt;/div&gt;&lt;div&gt;&lt;span style=&quot;font-size: 12px;&quot;&gt;检修计划停电范围&lt;/span&gt;&lt;span style=&quot;font-size: 12px;&quot;&gt;&lt;/span&gt;&lt;/div&gt;&lt;div&gt;&lt;span style=&quot;font-size: 12px;&quot;&gt;保存到数据库&lt;/span&gt;&lt;/div&gt;" style="whiteSpace=wrap;html=1;fontSize=8;fontFamily=Verdana;rounded=0;shadow=0;labelBackgroundColor=none;strokeWidth=1;" parent="77e6c97f196da883-7" vertex="1">
          <mxGeometry x="30" y="710" width="100" height="60" as="geometry" />
        </mxCell>
        <mxCell id="OuAqoAczvBelTa_8rbJ0-30" style="edgeStyle=orthogonalEdgeStyle;rounded=0;orthogonalLoop=1;jettySize=auto;html=1;exitX=0.5;exitY=1;exitDx=0;exitDy=0;entryX=0.5;entryY=0;entryDx=0;entryDy=0;" edge="1" parent="77e6c97f196da883-7" source="OuAqoAczvBelTa_8rbJ0-27" target="cfTg0l-f0pAShHveTOmt-73">
          <mxGeometry relative="1" as="geometry" />
        </mxCell>
        <mxCell id="OuAqoAczvBelTa_8rbJ0-31" value="是" style="edgeLabel;html=1;align=center;verticalAlign=middle;resizable=0;points=[];" vertex="1" connectable="0" parent="OuAqoAczvBelTa_8rbJ0-30">
          <mxGeometry x="-0.2" relative="1" as="geometry">
            <mxPoint as="offset" />
          </mxGeometry>
        </mxCell>
        <mxCell id="OuAqoAczvBelTa_8rbJ0-27" value="&lt;span style=&quot;font-size: 12px;&quot;&gt;是否存在&lt;/span&gt;&lt;div&gt;&lt;span style=&quot;font-size: 12px;&quot;&gt;新增&lt;/span&gt;&lt;span style=&quot;font-size: 12px; background-color: transparent; color: light-dark(rgb(0, 0, 0), rgb(255, 255, 255));&quot;&gt;检修任务&lt;/span&gt;&lt;/div&gt;" style="rhombus;whiteSpace=wrap;html=1;rounded=0;shadow=0;labelBackgroundColor=none;strokeWidth=1;fontFamily=Verdana;fontSize=8;align=center;" vertex="1" parent="77e6c97f196da883-7">
          <mxGeometry x="30" y="360" width="100" height="75" as="geometry" />
        </mxCell>
        <mxCell id="cfTg0l-f0pAShHveTOmt-28" value="" style="edgeStyle=orthogonalEdgeStyle;rounded=0;orthogonalLoop=1;jettySize=auto;html=1;" parent="77e6c97f196da883-1" source="cfTg0l-f0pAShHveTOmt-1" target="cfTg0l-f0pAShHveTOmt-27" edge="1">
          <mxGeometry relative="1" as="geometry" />
        </mxCell>
        <mxCell id="cfTg0l-f0pAShHveTOmt-60" value="查询到" style="edgeLabel;html=1;align=center;verticalAlign=middle;resizable=0;points=[];" parent="cfTg0l-f0pAShHveTOmt-28" vertex="1" connectable="0">
          <mxGeometry x="-0.5771" relative="1" as="geometry">
            <mxPoint as="offset" />
          </mxGeometry>
        </mxCell>
        <mxCell id="cfTg0l-f0pAShHveTOmt-45" style="edgeStyle=orthogonalEdgeStyle;rounded=0;orthogonalLoop=1;jettySize=auto;html=1;exitX=1;exitY=0.5;exitDx=0;exitDy=0;entryX=0;entryY=0.5;entryDx=0;entryDy=0;" parent="77e6c97f196da883-1" source="cfTg0l-f0pAShHveTOmt-27" target="cfTg0l-f0pAShHveTOmt-33" edge="1">
          <mxGeometry relative="1" as="geometry" />
        </mxCell>
        <mxCell id="cfTg0l-f0pAShHveTOmt-61" value="查询到" style="edgeLabel;html=1;align=center;verticalAlign=middle;resizable=0;points=[];" parent="cfTg0l-f0pAShHveTOmt-45" vertex="1" connectable="0">
          <mxGeometry x="-0.5067" y="-1" relative="1" as="geometry">
            <mxPoint as="offset" />
          </mxGeometry>
        </mxCell>
        <mxCell id="cfTg0l-f0pAShHveTOmt-50" value="" style="edgeStyle=orthogonalEdgeStyle;rounded=0;orthogonalLoop=1;jettySize=auto;html=1;" parent="77e6c97f196da883-1" source="cfTg0l-f0pAShHveTOmt-33" edge="1">
          <mxGeometry relative="1" as="geometry">
            <mxPoint x="510" y="217.5" as="targetPoint" />
          </mxGeometry>
        </mxCell>
        <mxCell id="cfTg0l-f0pAShHveTOmt-62" value="否" style="edgeLabel;html=1;align=center;verticalAlign=middle;resizable=0;points=[];" parent="cfTg0l-f0pAShHveTOmt-50" vertex="1" connectable="0">
          <mxGeometry x="-0.5733" relative="1" as="geometry">
            <mxPoint as="offset" />
          </mxGeometry>
        </mxCell>
        <mxCell id="cfTg0l-f0pAShHveTOmt-65" style="edgeStyle=orthogonalEdgeStyle;rounded=0;orthogonalLoop=1;jettySize=auto;html=1;entryX=0.5;entryY=0;entryDx=0;entryDy=0;exitX=0.5;exitY=1;exitDx=0;exitDy=0;" parent="77e6c97f196da883-1" source="OuAqoAczvBelTa_8rbJ0-25" target="cfTg0l-f0pAShHveTOmt-64" edge="1">
          <mxGeometry relative="1" as="geometry">
            <mxPoint x="630" y="302" as="targetPoint" />
            <mxPoint x="560" y="700" as="sourcePoint" />
            <Array as="points">
              <mxPoint x="560" y="660" />
              <mxPoint x="630" y="660" />
              <mxPoint x="630" y="110" />
              <mxPoint x="720" y="110" />
            </Array>
          </mxGeometry>
        </mxCell>
        <mxCell id="cfTg0l-f0pAShHveTOmt-59" value="数据完善并保存" style="swimlane;html=1;startSize=20;" parent="77e6c97f196da883-1" vertex="1">
          <mxGeometry x="800" y="20" width="160" height="1090" as="geometry" />
        </mxCell>
        <mxCell id="cfTg0l-f0pAShHveTOmt-82" style="edgeStyle=orthogonalEdgeStyle;rounded=0;orthogonalLoop=1;jettySize=auto;html=1;exitX=0.5;exitY=1;exitDx=0;exitDy=0;entryX=0.5;entryY=0;entryDx=0;entryDy=0;" parent="cfTg0l-f0pAShHveTOmt-59" source="cfTg0l-f0pAShHveTOmt-80" target="cfTg0l-f0pAShHveTOmt-81" edge="1">
          <mxGeometry relative="1" as="geometry" />
        </mxCell>
        <mxCell id="cfTg0l-f0pAShHveTOmt-80" value="&lt;div&gt;&lt;span style=&quot;font-size: 12px;&quot;&gt;检修计划于工作任务关系&lt;br&gt;数据对象组织并保存入库&lt;/span&gt;&lt;/div&gt;" style="whiteSpace=wrap;html=1;fontSize=8;fontFamily=Verdana;rounded=0;shadow=0;labelBackgroundColor=none;strokeWidth=1;" parent="cfTg0l-f0pAShHveTOmt-59" vertex="1">
          <mxGeometry x="30" y="160" width="100" height="60" as="geometry" />
        </mxCell>
        <mxCell id="cfTg0l-f0pAShHveTOmt-81" value="&lt;span style=&quot;font-size: 12px;&quot;&gt;检修工作任务班组&lt;/span&gt;&lt;div&gt;&lt;span style=&quot;font-size: 12px;&quot;&gt;检修作业工序&lt;/span&gt;&lt;span style=&quot;font-size: 12px;&quot;&gt;&lt;/span&gt;&lt;/div&gt;&lt;div&gt;&lt;font style=&quot;font-size: 12px;&quot;&gt;检修工作任务设备&lt;/font&gt;&lt;span style=&quot;font-size: 12px;&quot;&gt;&lt;/span&gt;&lt;/div&gt;&lt;div&gt;&lt;font style=&quot;font-size: 12px;&quot;&gt;数据入库&lt;/font&gt;&lt;/div&gt;" style="whiteSpace=wrap;html=1;fontSize=8;fontFamily=Verdana;rounded=0;shadow=0;labelBackgroundColor=none;strokeWidth=1;" parent="cfTg0l-f0pAShHveTOmt-59" vertex="1">
          <mxGeometry x="30" y="350" width="100" height="60" as="geometry" />
        </mxCell>
        <mxCell id="cfTg0l-f0pAShHveTOmt-85" style="edgeStyle=orthogonalEdgeStyle;rounded=0;orthogonalLoop=1;jettySize=auto;html=1;exitX=0.5;exitY=1;exitDx=0;exitDy=0;entryX=0.5;entryY=0;entryDx=0;entryDy=0;" parent="cfTg0l-f0pAShHveTOmt-59" source="cfTg0l-f0pAShHveTOmt-83" target="cfTg0l-f0pAShHveTOmt-84" edge="1">
          <mxGeometry relative="1" as="geometry" />
        </mxCell>
        <mxCell id="cfTg0l-f0pAShHveTOmt-83" value="&lt;span style=&quot;font-size: 12px;&quot;&gt;检修计划&lt;/span&gt;&lt;div&gt;&lt;span style=&quot;font-size: 12px; background-color: transparent; color: light-dark(rgb(0, 0, 0), rgb(255, 255, 255));&quot;&gt;作业风险等级、&lt;/span&gt;&lt;div&gt;&lt;span style=&quot;font-size: 12px;&quot;&gt;设备最高压等级设置&lt;/span&gt;&lt;/div&gt;&lt;div&gt;&lt;span style=&quot;color: rgba(0, 0, 0, 0); font-family: monospace; font-size: 0px; text-align: start; text-wrap-mode: nowrap;&quot;&gt;%3CmxGraphModel%3E%3Croot%3E%3CmxCell%20id%3D%220%22%2F%3E%3CmxCell%20id%3D%221%22%20parent%3D%220%22%2F%3E%3CmxCell%20id%3D%222%22%20value%3D%22%26lt%3Bdiv%26gt%3B%26lt%3Bspan%20style%3D%26quot%3Bfont-size%3A%2012px%3B%26quot%3B%26gt%3B%E5%81%9C%E7%94%B5%E8%8C%83%E5%9B%B4%E5%88%86%E6%9E%90%26lt%3B%2Fspan%26gt%3B%26lt%3B%2Fdiv%26gt%3B%22%20style%3D%22whiteSpace%3Dwrap%3Bhtml%3D1%3BfontSize%3D8%3BfontFamily%3DVerdana%3Brounded%3D0%3Bshadow%3D0%3BlabelBackgroundColor%3Dnone%3BstrokeWidth%3D1%3B%22%20vertex%3D%221%22%20parent%3D%221%22%3E%3CmxGeometry%20x%3D%22740%22%20y%3D%22410%22%20width%3D%22100%22%20height%3D%2260%22%20as%3D%22geometry%22%2F%3E%3C%2FmxCell%3E%3C%2Froot%3E%3C%2FmxGraphModel%3E&lt;/span&gt;&lt;span style=&quot;font-size: 12px;&quot;&gt;&lt;/span&gt;&lt;/div&gt;&lt;/div&gt;" style="whiteSpace=wrap;html=1;fontSize=8;fontFamily=Verdana;rounded=0;shadow=0;labelBackgroundColor=none;strokeWidth=1;" parent="cfTg0l-f0pAShHveTOmt-59" vertex="1">
          <mxGeometry x="30" y="440" width="100" height="60" as="geometry" />
        </mxCell>
        <mxCell id="cfTg0l-f0pAShHveTOmt-87" value="" style="edgeStyle=orthogonalEdgeStyle;rounded=0;orthogonalLoop=1;jettySize=auto;html=1;" parent="cfTg0l-f0pAShHveTOmt-59" source="cfTg0l-f0pAShHveTOmt-84" target="cfTg0l-f0pAShHveTOmt-86" edge="1">
          <mxGeometry relative="1" as="geometry" />
        </mxCell>
        <mxCell id="cfTg0l-f0pAShHveTOmt-84" value="&lt;div&gt;&lt;span style=&quot;font-size: 12px;&quot;&gt;检修计划&lt;/span&gt;&lt;/div&gt;&lt;div&gt;&lt;span style=&quot;font-size: 12px;&quot;&gt;数据入库&lt;/span&gt;&lt;/div&gt;" style="whiteSpace=wrap;html=1;fontSize=8;fontFamily=Verdana;rounded=0;shadow=0;labelBackgroundColor=none;strokeWidth=1;" parent="cfTg0l-f0pAShHveTOmt-59" vertex="1">
          <mxGeometry x="30" y="530" width="100" height="60" as="geometry" />
        </mxCell>
        <mxCell id="cfTg0l-f0pAShHveTOmt-89" style="edgeStyle=orthogonalEdgeStyle;rounded=0;orthogonalLoop=1;jettySize=auto;html=1;exitX=0.5;exitY=1;exitDx=0;exitDy=0;entryX=0.5;entryY=0;entryDx=0;entryDy=0;" parent="cfTg0l-f0pAShHveTOmt-59" source="cfTg0l-f0pAShHveTOmt-86" target="cfTg0l-f0pAShHveTOmt-88" edge="1">
          <mxGeometry relative="1" as="geometry" />
        </mxCell>
        <mxCell id="cfTg0l-f0pAShHveTOmt-86" value="&lt;div&gt;&lt;span style=&quot;font-size: 12px;&quot;&gt;检修站线&lt;/span&gt;&lt;/div&gt;&lt;div&gt;&lt;span style=&quot;font-size: 12px;&quot;&gt;数据组装并入库&lt;/span&gt;&lt;/div&gt;" style="whiteSpace=wrap;html=1;fontSize=8;fontFamily=Verdana;rounded=0;shadow=0;labelBackgroundColor=none;strokeWidth=1;" parent="cfTg0l-f0pAShHveTOmt-59" vertex="1">
          <mxGeometry x="30" y="620" width="100" height="60" as="geometry" />
        </mxCell>
        <mxCell id="cfTg0l-f0pAShHveTOmt-92" style="edgeStyle=orthogonalEdgeStyle;rounded=0;orthogonalLoop=1;jettySize=auto;html=1;exitX=0.5;exitY=1;exitDx=0;exitDy=0;entryX=0.5;entryY=0;entryDx=0;entryDy=0;" parent="cfTg0l-f0pAShHveTOmt-59" source="cfTg0l-f0pAShHveTOmt-88" target="cfTg0l-f0pAShHveTOmt-90" edge="1">
          <mxGeometry relative="1" as="geometry" />
        </mxCell>
        <mxCell id="cfTg0l-f0pAShHveTOmt-88" value="&lt;div&gt;&lt;span style=&quot;font-size: 12px;&quot;&gt;检修发送内容配置&lt;/span&gt;&lt;/div&gt;&lt;div&gt;&lt;span style=&quot;font-size: 12px;&quot;&gt;数据组装并入库&lt;/span&gt;&lt;/div&gt;" style="whiteSpace=wrap;html=1;fontSize=8;fontFamily=Verdana;rounded=0;shadow=0;labelBackgroundColor=none;strokeWidth=1;" parent="cfTg0l-f0pAShHveTOmt-59" vertex="1">
          <mxGeometry x="30" y="710" width="100" height="60" as="geometry" />
        </mxCell>
        <mxCell id="cfTg0l-f0pAShHveTOmt-107" style="edgeStyle=orthogonalEdgeStyle;rounded=0;orthogonalLoop=1;jettySize=auto;html=1;exitX=0.5;exitY=1;exitDx=0;exitDy=0;entryX=0.5;entryY=0;entryDx=0;entryDy=0;" parent="cfTg0l-f0pAShHveTOmt-59" source="cfTg0l-f0pAShHveTOmt-90" target="cfTg0l-f0pAShHveTOmt-106" edge="1">
          <mxGeometry relative="1" as="geometry" />
        </mxCell>
        <mxCell id="cfTg0l-f0pAShHveTOmt-90" value="&lt;div&gt;&lt;span style=&quot;font-size: 12px;&quot;&gt;更新检修计划的&lt;/span&gt;&lt;/div&gt;&lt;div&gt;&lt;span style=&quot;font-size: 12px;&quot;&gt;调度接收单位&lt;/span&gt;&lt;/div&gt;" style="whiteSpace=wrap;html=1;fontSize=8;fontFamily=Verdana;rounded=0;shadow=0;labelBackgroundColor=none;strokeWidth=1;" parent="cfTg0l-f0pAShHveTOmt-59" vertex="1">
          <mxGeometry x="30" y="800" width="100" height="60" as="geometry" />
        </mxCell>
        <mxCell id="cfTg0l-f0pAShHveTOmt-109" style="edgeStyle=orthogonalEdgeStyle;rounded=0;orthogonalLoop=1;jettySize=auto;html=1;exitX=0.5;exitY=1;exitDx=0;exitDy=0;entryX=0.5;entryY=0;entryDx=0;entryDy=0;" parent="cfTg0l-f0pAShHveTOmt-59" source="cfTg0l-f0pAShHveTOmt-106" target="cfTg0l-f0pAShHveTOmt-108" edge="1">
          <mxGeometry relative="1" as="geometry" />
        </mxCell>
        <mxCell id="cfTg0l-f0pAShHveTOmt-106" value="&lt;span style=&quot;font-size: 12px;&quot;&gt;检修扩展属性&lt;/span&gt;&lt;div&gt;&lt;span style=&quot;font-size: 12px;&quot;&gt;数据组装并入库&lt;/span&gt;&lt;/div&gt;" style="whiteSpace=wrap;html=1;fontSize=8;fontFamily=Verdana;rounded=0;shadow=0;labelBackgroundColor=none;strokeWidth=1;" parent="cfTg0l-f0pAShHveTOmt-59" vertex="1">
          <mxGeometry x="30" y="890" width="100" height="60" as="geometry" />
        </mxCell>
        <mxCell id="cfTg0l-f0pAShHveTOmt-108" value="&lt;span style=&quot;font-size: 12px;&quot;&gt;成功返回&lt;/span&gt;" style="whiteSpace=wrap;html=1;fontSize=8;fontFamily=Verdana;rounded=0;shadow=0;labelBackgroundColor=none;strokeWidth=1;" parent="cfTg0l-f0pAShHveTOmt-59" vertex="1">
          <mxGeometry x="30" y="980" width="100" height="60" as="geometry" />
        </mxCell>
        <mxCell id="cfTg0l-f0pAShHveTOmt-112" style="edgeStyle=orthogonalEdgeStyle;rounded=0;orthogonalLoop=1;jettySize=auto;html=1;exitX=0.5;exitY=1;exitDx=0;exitDy=0;entryX=0.5;entryY=0;entryDx=0;entryDy=0;" parent="77e6c97f196da883-1" source="cfTg0l-f0pAShHveTOmt-78" target="cfTg0l-f0pAShHveTOmt-80" edge="1">
          <mxGeometry relative="1" as="geometry">
            <Array as="points">
              <mxPoint x="720" y="830" />
              <mxPoint x="790" y="830" />
              <mxPoint x="790" y="110" />
              <mxPoint x="880" y="110" />
            </Array>
          </mxGeometry>
        </mxCell>
      </root>
    </mxGraphModel>
  </diagram>
</mxfile>
